<svg width="24" height="24" viewBox="0 0 24 24" fill="none" xmlns="http://www.w3.org/2000/svg">
<g clip-path="url(#clip0_6293_2702)">
<path d="M23.9151 11.6427L19.361 2.18279C19.1585 1.76144 18.6643 1.5691 18.2265 1.73488C17.5863 1.96389 17.0556 2.10305 16.5515 2.17269C15.122 2.36853 13.596 2.06664 12.2561 1.32363C10.5777 0.358483 8.67371 -0.0363093 6.74658 0.182595C5.06823 0.371634 3.50914 1.01183 2.19902 2.04338L2.07308 1.7847C2.19631 1.60009 2.26209 1.38311 2.26212 1.16115C2.26212 0.53761 1.75473 0.0300293 1.13119 0.0300293C0.507387 0.0299645 0 0.537546 0 1.16109C0 1.76468 0.474217 2.25561 1.06816 2.29202L11.1284 23.2086C11.2246 23.4111 11.4268 23.5272 11.6358 23.5272C11.7209 23.5279 11.805 23.5086 11.8813 23.4708C12.1632 23.3346 12.2793 22.9998 12.1467 22.7177L7.53261 13.1517C10.0537 11.0589 13.5795 10.7337 16.452 12.3657C16.4685 12.3756 16.4819 12.3857 16.4984 12.3955C17.5366 12.9893 18.7175 13.3476 19.9116 13.4303C20.0906 13.4437 20.2664 13.447 20.4456 13.447C21.4639 13.447 22.4889 13.2514 23.4307 12.8698C23.6631 12.7769 23.8455 12.5879 23.9351 12.3591C24.028 12.1235 24.0211 11.8616 23.9151 11.6427ZM20.3196 12.3227L18.87 9.27766C18.9495 9.2809 19.0292 9.2809 19.109 9.2809C19.8717 9.2809 20.6346 9.1615 21.361 8.93268L22.794 11.9046C21.9847 12.2 21.1489 12.3391 20.3196 12.3227ZM13.3804 10.2461L11.9312 7.20781C13.1284 7.31082 14.316 7.66895 15.4072 8.29573C15.4305 8.30914 15.4502 8.31905 15.4735 8.33246L16.8998 11.3209C15.802 10.7173 14.6078 10.3557 13.3804 10.2461ZM6.8494 4.3386C7.94829 3.95404 9.11501 3.80161 10.2758 3.89095L11.8216 7.13169C10.6612 7.04871 9.49615 7.2045 8.39838 7.58946L6.8494 4.3386ZM11.6955 2.3055C11.6955 2.3055 11.6988 2.3055 11.6988 2.3088L11.702 2.3121C12.071 2.51604 12.4546 2.69231 12.8497 2.83944L13.8414 4.92244C12.7338 4.28905 11.5298 3.92736 10.3155 3.82791L9.14488 1.37021C10.0238 1.52939 10.8863 1.84119 11.6955 2.3055ZM13.9974 5.07831C14.9228 5.57585 15.9611 5.87774 17.0126 5.94732C17.0789 5.95088 17.1485 5.95418 17.2148 5.95749L18.7638 9.20801C17.646 9.15489 16.5381 8.84315 15.5266 8.27927L13.9974 5.07831ZM16.7008 3.29066C17.2381 3.21759 17.792 3.07837 18.4355 2.85616L19.7357 5.55939C18.9368 5.81531 18.0997 5.93089 17.2613 5.901L16.0441 3.35046C16.2631 3.34029 16.4819 3.32046 16.7008 3.29066ZM5.46309 1.58231L6.7598 4.29889C5.7638 4.65682 4.84357 5.19799 4.04666 5.89445L2.69332 3.08821C3.52592 2.39179 4.46775 1.88751 5.46309 1.58231ZM5.66528 9.26444C6.47132 8.5546 7.39015 8.02396 8.36521 7.67218L9.78488 10.6441C8.7895 10.9673 7.85793 11.4611 7.03183 12.1036L5.66528 9.26444Z" fill="white"/>
</g>
<defs>
<clipPath id="clip0_6293_2702">
<rect width="24" height="24" fill="white"/>
</clipPath>
</defs>
</svg>
